<?xml version="1.0" encoding="UTF-8"?>
<svg id="Warstwa_2" xmlns="http://www.w3.org/2000/svg" viewBox="0 0 122.54 163.07">
  <defs>
    <style>
      .cls-1 {
        fill: #78707f;
      }

      .cls-2 {
        fill: #1e1426;
      }

      .cls-3 {
        fill: #c2b8cc;
      }

      .cls-4 {
        fill: #3a2f3d;
        stroke: #231f20;
        stroke-miterlimit: 10;
      }

      .cls-5 {
        fill: #d31184;
      }
    </style>
  </defs>
  <g id="Warstwa_3">
    <path class="cls-4" d="M122.04,162.57H1.62L.5,61.28C.47,27.74,27.64.52,61.18.5c9.87,0,19.19,2.34,27.43,6.51,19.77,10,33.33,30.5,33.34,54.17l.08,101.39Z"/>
    <ellipse class="cls-5" cx="62.42" cy="81.08" rx="5.71" ry="11.32"/>
    <path class="cls-1" d="M76.11,57.38l-27.43.02c-8.77,0-15.87,7.12-15.86,15.89s7.12,15.87,15.89,15.86c5.85,0,10.96-3.17,13.71-7.89,2.76,4.71,7.87,7.87,13.72,7.87,8.77,0,15.87-7.12,15.86-15.89,0-8.77-7.12-15.87-15.89-15.86Z"/>
    <path class="cls-2" d="M75.66,63.27c0,.75-.19,1.48-.54,2.11-.35.64-.86,1.19-1.5,1.59l-7.92,6.29c-2.01,1.26-4.57,1.26-6.58,0l-7.93-6.28c-.64-.4-1.15-.95-1.5-1.58-.35-.64-.55-1.36-.55-2.11,0-3.25,2.63-5.89,5.89-5.89h14.74c3.25-.01,5.89,2.62,5.9,5.87Z"/>
    <rect class="cls-2" x="78.36" y="43.3" width="13.72" height="13.72" rx="6.86" ry="6.86"/>
    <rect class="cls-2" x="31.73" y="43.34" width="13.72" height="13.72" rx="6.86" ry="6.86" transform="translate(77.22 100.36) rotate(179.96)"/>
    <path class="cls-1" d="M91.1,162.57h-58.21l-.03-37.39c0-8.04,3.25-15.32,8.51-20.59,5.26-5.27,12.54-8.54,20.57-8.54h0c16.07-.01,29.12,13.01,29.13,29.08l.03,37.44Z"/>
    <circle class="cls-3" cx="40.55" cy="52.16" r="1.49"/>
    <circle class="cls-3" cx="83.68" cy="51.76" r="1.49"/>
  </g>
</svg>